ISO-10303-21;
HEADER;
FILE_DESCRIPTION(('Open CASCADE Model'),'2;1');
FILE_NAME('Open CASCADE Shape Model','2026-08-17T13:47:19',('Author'),(
    'Open CASCADE'),'Open CASCADE STEP processor 7.9','Open CASCADE 7.9'
  ,'Unknown');
FILE_SCHEMA(('AUTOMOTIVE_DESIGN { 1 0 10303 214 1 1 1 1 }'));
ENDSEC;
DATA;
#1 = APPLICATION_PROTOCOL_DEFINITION('international standard',
  'automotive_design',2000,#2);
#2 = APPLICATION_CONTEXT(
  'core data for automotive mechanical design processes');
#3 = SHAPE_DEFINITION_REPRESENTATION(#4,#10);
#4 = PRODUCT_DEFINITION_SHAPE('','',#5);
#5 = PRODUCT_DEFINITION('design','',#6,#9);
#6 = PRODUCT_DEFINITION_FORMATION('','',#7);
#7 = PRODUCT('Open CASCADE STEP translator 7.9 2',
  'Open CASCADE STEP translator 7.9 2','',(#8));
#8 = PRODUCT_CONTEXT('',#2,'mechanical');
#9 = PRODUCT_DEFINITION_CONTEXT('part definition',#2,'design');
#10 = ADVANCED_BREP_SHAPE_REPRESENTATION('',(#11,#15),#531);
#11 = AXIS2_PLACEMENT_3D('',#12,#13,#14);
#12 = CARTESIAN_POINT('',(0.,0.,0.));
#13 = DIRECTION('',(0.,0.,1.));
#14 = DIRECTION('',(1.,0.,-0.));
#15 = MANIFOLD_SOLID_BREP('',#16);
#16 = CLOSED_SHELL('',(#17,#160,#218,#223,#346,#425,#499,#526));
#17 = ADVANCED_FACE('',(#18),#32,.T.);
#18 = FACE_BOUND('',#19,.T.);
#19 = EDGE_LOOP('',(#20,#77,#110,#133));
#20 = ORIENTED_EDGE('',*,*,#21,.F.);
#21 = EDGE_CURVE('',#22,#24,#26,.T.);
#22 = VERTEX_POINT('',#23);
#23 = CARTESIAN_POINT('',(265.5340775369,175.8615090069,-1.2));
#24 = VERTEX_POINT('',#25);
#25 = CARTESIAN_POINT('',(265.5340775369,175.8615090069,-1.3));
#26 = SURFACE_CURVE('',#27,(#31,#65),.PCURVE_S1.);
#27 = LINE('',#28,#29);
#28 = CARTESIAN_POINT('',(265.5340775369,175.8615090069,-1.2));
#29 = VECTOR('',#30,1.);
#30 = DIRECTION('',(3.103650664981E-10,-1.132968916923E-07,-1.));
#31 = PCURVE('',#32,#37);
#32 = CYLINDRICAL_SURFACE('',#33,1.054610546806);
#33 = AXIS2_PLACEMENT_3D('',#34,#35,#36);
#34 = CARTESIAN_POINT('',(266.5886880837,175.8615090069,-1.2));
#35 = DIRECTION('',(0.,0.,-1.));
#36 = DIRECTION('',(-1.,0.,0.));
#37 = DEFINITIONAL_REPRESENTATION('',(#38),#64);
#38 = B_SPLINE_CURVE_WITH_KNOTS('',3,(#39,#40,#41,#42,#43,#44,#45,#46,
    #47,#48,#49,#50,#51,#52,#53,#54,#55,#56,#57,#58,#59,#60,#61,#62,#63)
  ,.UNSPECIFIED.,.F.,.F.,(4,1,1,1,1,1,1,1,1,1,1,1,1,1,1,1,1,1,1,1,1,1,4)
  ,(0.,4.545454545455E-03,9.090909090909E-03,1.363636363636E-02,
    1.818181818182E-02,2.272727272727E-02,2.727272727273E-02,
    3.181818181818E-02,3.636363636364E-02,4.090909090909E-02,
    4.545454545455E-02,5.E-02,5.454545454545E-02,5.909090909091E-02,
    6.363636363636E-02,6.818181818182E-02,7.272727272727E-02,
    7.727272727273E-02,8.181818181818E-02,8.636363636364E-02,
    9.090909090909E-02,9.545454545454E-02,1.E-01),
  .QUASI_UNIFORM_KNOTS.);
#39 = CARTESIAN_POINT('',(0.,0.));
#40 = CARTESIAN_POINT('',(-1.627578072316E-10,1.515151515151E-03));
#41 = CARTESIAN_POINT('',(-4.883009552259E-10,4.545454545454E-03));
#42 = CARTESIAN_POINT('',(-9.766498720865E-10,9.090909090909E-03));
#43 = CARTESIAN_POINT('',(-1.464933063744E-09,1.363636363636E-02));
#44 = CARTESIAN_POINT('',(-1.953290862389E-09,1.818181818182E-02));
#45 = CARTESIAN_POINT('',(-2.441574942225E-09,2.272727272727E-02));
#46 = CARTESIAN_POINT('',(-2.929930076334E-09,2.727272727273E-02));
#47 = CARTESIAN_POINT('',(-3.418212379813E-09,3.181818181818E-02));
#48 = CARTESIAN_POINT('',(-3.906570178458E-09,3.636363636364E-02));
#49 = CARTESIAN_POINT('',(-4.394852481937E-09,4.090909090909E-02));
#50 = CARTESIAN_POINT('',(-4.883206727868E-09,4.545454545455E-02));
#51 = CARTESIAN_POINT('',(-5.371507683094E-09,5.E-02));
#52 = CARTESIAN_POINT('',(-5.859786433859E-09,5.454545454545E-02));
#53 = CARTESIAN_POINT('',(-6.348207293172E-09,5.909090909091E-02));
#54 = CARTESIAN_POINT('',(-6.836244459407E-09,6.363636363636E-02));
#55 = CARTESIAN_POINT('',(-7.325514417289E-09,6.818181818182E-02));
#56 = CARTESIAN_POINT('',(-7.810396773777E-09,7.272727272727E-02));
#57 = CARTESIAN_POINT('',(-8.311431543007E-09,7.727272727273E-02));
#58 = CARTESIAN_POINT('',(-8.752415681101E-09,8.181818181818E-02));
#59 = CARTESIAN_POINT('',(-9.417284729807E-09,8.636363636364E-02));
#60 = CARTESIAN_POINT('',(-9.246817533892E-09,9.090909090909E-02));
#61 = CARTESIAN_POINT('',(-1.21936478692E-08,9.545454545454E-02));
#62 = CARTESIAN_POINT('',(-6.402412822126E-09,9.848484848485E-02));
#63 = CARTESIAN_POINT('',(0.,1.E-01));
#64 = ( GEOMETRIC_REPRESENTATION_CONTEXT(2) 
PARAMETRIC_REPRESENTATION_CONTEXT() REPRESENTATION_CONTEXT('2D SPACE',''
  ) );
#65 = PCURVE('',#66,#71);
#66 = CYLINDRICAL_SURFACE('',#67,1.054610546806);
#67 = AXIS2_PLACEMENT_3D('',#68,#69,#70);
#68 = CARTESIAN_POINT('',(266.5886880837,175.8615090069,-1.2));
#69 = DIRECTION('',(0.,0.,-1.));
#70 = DIRECTION('',(-1.,0.,0.));
#71 = DEFINITIONAL_REPRESENTATION('',(#72),#76);
#72 = LINE('',#73,#74);
#73 = CARTESIAN_POINT('',(6.28318530718,0.));
#74 = VECTOR('',#75,1.);
#75 = DIRECTION('',(-1.074300737258E-07,1.));
#76 = ( GEOMETRIC_REPRESENTATION_CONTEXT(2) 
PARAMETRIC_REPRESENTATION_CONTEXT() REPRESENTATION_CONTEXT('2D SPACE',''
  ) );
#77 = ORIENTED_EDGE('',*,*,#78,.T.);
#78 = EDGE_CURVE('',#22,#79,#81,.T.);
#79 = VERTEX_POINT('',#80);
#80 = CARTESIAN_POINT('',(267.6432986305,175.8615090069,-1.2));
#81 = SURFACE_CURVE('',#82,(#87,#94),.PCURVE_S1.);
#82 = CIRCLE('',#83,1.054610546806);
#83 = AXIS2_PLACEMENT_3D('',#84,#85,#86);
#84 = CARTESIAN_POINT('',(266.5886880837,175.8615090069,-1.2));
#85 = DIRECTION('',(0.,0.,-1.));
#86 = DIRECTION('',(-1.,0.,0.));
#87 = PCURVE('',#32,#88);
#88 = DEFINITIONAL_REPRESENTATION('',(#89),#93);
#89 = LINE('',#90,#91);
#90 = CARTESIAN_POINT('',(0.,0.));
#91 = VECTOR('',#92,1.);
#92 = DIRECTION('',(1.,0.));
#93 = ( GEOMETRIC_REPRESENTATION_CONTEXT(2) 
PARAMETRIC_REPRESENTATION_CONTEXT() REPRESENTATION_CONTEXT('2D SPACE',''
  ) );
#94 = PCURVE('',#95,#100);
#95 = PLANE('',#96);
#96 = AXIS2_PLACEMENT_3D('',#97,#98,#99);
#97 = CARTESIAN_POINT('',(253.010799,103.10157,-1.2));
#98 = DIRECTION('',(0.,0.,1.));
#99 = DIRECTION('',(1.,0.,-0.));
#100 = DEFINITIONAL_REPRESENTATION('',(#101),#109);
#101 = ( BOUNDED_CURVE() B_SPLINE_CURVE(2,(#102,#103,#104,#105,#106,#107
,#108),.UNSPECIFIED.,.T.,.F.) B_SPLINE_CURVE_WITH_KNOTS((1,2,2,2,2,1),(
    -2.094395102393,0.,2.094395102393,4.188790204786,6.28318530718,
8.377580409573),.UNSPECIFIED.) CURVE() GEOMETRIC_REPRESENTATION_ITEM() 
RATIONAL_B_SPLINE_CURVE((1.,0.5,1.,0.5,1.,0.5,1.)) REPRESENTATION_ITEM(
  '') );
#102 = CARTESIAN_POINT('',(12.523278536894,72.7599390069));
#103 = CARTESIAN_POINT('',(12.523278536894,74.586578056166));
#104 = CARTESIAN_POINT('',(14.105194357103,73.673258531533));
#105 = CARTESIAN_POINT('',(15.687110177312,72.7599390069));
#106 = CARTESIAN_POINT('',(14.105194357103,71.846619482267));
#107 = CARTESIAN_POINT('',(12.523278536894,70.933299957634));
#108 = CARTESIAN_POINT('',(12.523278536894,72.7599390069));
#109 = ( GEOMETRIC_REPRESENTATION_CONTEXT(2) 
PARAMETRIC_REPRESENTATION_CONTEXT() REPRESENTATION_CONTEXT('2D SPACE',''
  ) );
#110 = ORIENTED_EDGE('',*,*,#111,.T.);
#111 = EDGE_CURVE('',#79,#112,#114,.T.);
#112 = VERTEX_POINT('',#113);
#113 = CARTESIAN_POINT('',(267.6432986305,175.8615090069,-1.3));
#114 = SURFACE_CURVE('',#115,(#119,#126),.PCURVE_S1.);
#115 = LINE('',#116,#117);
#116 = CARTESIAN_POINT('',(267.6432986305,175.8615090069,-1.2));
#117 = VECTOR('',#118,1.);
#118 = DIRECTION('',(-3.103650664981E-10,1.132974601265E-07,-1.));
#119 = PCURVE('',#32,#120);
#120 = DEFINITIONAL_REPRESENTATION('',(#121),#125);
#121 = LINE('',#122,#123);
#122 = CARTESIAN_POINT('',(3.14159265359,0.));
#123 = VECTOR('',#124,1.);
#124 = DIRECTION('',(-1.074306155147E-07,1.));
#125 = ( GEOMETRIC_REPRESENTATION_CONTEXT(2) 
PARAMETRIC_REPRESENTATION_CONTEXT() REPRESENTATION_CONTEXT('2D SPACE',''
  ) );
#126 = PCURVE('',#66,#127);
#127 = DEFINITIONAL_REPRESENTATION('',(#128),#132);
#128 = LINE('',#129,#130);
#129 = CARTESIAN_POINT('',(3.14159265359,0.));
#130 = VECTOR('',#131,1.);
#131 = DIRECTION('',(-1.074306155147E-07,1.));
#132 = ( GEOMETRIC_REPRESENTATION_CONTEXT(2) 
PARAMETRIC_REPRESENTATION_CONTEXT() REPRESENTATION_CONTEXT('2D SPACE',''
  ) );
#133 = ORIENTED_EDGE('',*,*,#134,.F.);
#134 = EDGE_CURVE('',#24,#112,#135,.T.);
#135 = SURFACE_CURVE('',#136,(#141,#148),.PCURVE_S1.);
#136 = CIRCLE('',#137,1.054610546806);
#137 = AXIS2_PLACEMENT_3D('',#138,#139,#140);
#138 = CARTESIAN_POINT('',(266.5886880837,175.8615090069,-1.3));
#139 = DIRECTION('',(0.,0.,-1.));
#140 = DIRECTION('',(-1.,0.,0.));
#141 = PCURVE('',#32,#142);
#142 = DEFINITIONAL_REPRESENTATION('',(#143),#147);
#143 = LINE('',#144,#145);
#144 = CARTESIAN_POINT('',(0.,0.1));
#145 = VECTOR('',#146,1.);
#146 = DIRECTION('',(1.,0.));
#147 = ( GEOMETRIC_REPRESENTATION_CONTEXT(2) 
PARAMETRIC_REPRESENTATION_CONTEXT() REPRESENTATION_CONTEXT('2D SPACE',''
  ) );
#148 = PCURVE('',#149,#154);
#149 = CONICAL_SURFACE('',#150,0.844804740012,0.19739555985);
#150 = AXIS2_PLACEMENT_3D('',#151,#152,#153);
#151 = CARTESIAN_POINT('',(266.5886880837,175.8615090069,-2.349029033971
    ));
#152 = DIRECTION('',(0.,0.,1.));
#153 = DIRECTION('',(0.,-1.,0.));
#154 = DEFINITIONAL_REPRESENTATION('',(#155),#159);
#155 = LINE('',#156,#157);
#156 = CARTESIAN_POINT('',(4.712388980385,1.049029033971));
#157 = VECTOR('',#158,1.);
#158 = DIRECTION('',(-1.,0.));
#159 = ( GEOMETRIC_REPRESENTATION_CONTEXT(2) 
PARAMETRIC_REPRESENTATION_CONTEXT() REPRESENTATION_CONTEXT('2D SPACE',''
  ) );
#160 = ADVANCED_FACE('',(#161),#66,.T.);
#161 = FACE_BOUND('',#162,.T.);
#162 = EDGE_LOOP('',(#163,#164,#190,#191));
#163 = ORIENTED_EDGE('',*,*,#111,.F.);
#164 = ORIENTED_EDGE('',*,*,#165,.T.);
#165 = EDGE_CURVE('',#79,#22,#166,.T.);
#166 = SURFACE_CURVE('',#167,(#172,#179),.PCURVE_S1.);
#167 = CIRCLE('',#168,1.054610546806);
#168 = AXIS2_PLACEMENT_3D('',#169,#170,#171);
#169 = CARTESIAN_POINT('',(266.5886880837,175.8615090069,-1.2));
#170 = DIRECTION('',(0.,0.,-1.));
#171 = DIRECTION('',(1.,0.,0.));
#172 = PCURVE('',#66,#173);
#173 = DEFINITIONAL_REPRESENTATION('',(#174),#178);
#174 = LINE('',#175,#176);
#175 = CARTESIAN_POINT('',(3.14159265359,0.));
#176 = VECTOR('',#177,1.);
#177 = DIRECTION('',(1.,0.));
#178 = ( GEOMETRIC_REPRESENTATION_CONTEXT(2) 
PARAMETRIC_REPRESENTATION_CONTEXT() REPRESENTATION_CONTEXT('2D SPACE',''
  ) );
#179 = PCURVE('',#95,#180);
#180 = DEFINITIONAL_REPRESENTATION('',(#181),#189);
#181 = ( BOUNDED_CURVE() B_SPLINE_CURVE(2,(#182,#183,#184,#185,#186,#187
,#188),.UNSPECIFIED.,.T.,.F.) B_SPLINE_CURVE_WITH_KNOTS((1,2,2,2,2,1),(
    -2.094395102393,0.,2.094395102393,4.188790204786,6.28318530718,
8.377580409573),.UNSPECIFIED.) CURVE() GEOMETRIC_REPRESENTATION_ITEM() 
RATIONAL_B_SPLINE_CURVE((1.,0.5,1.,0.5,1.,0.5,1.)) REPRESENTATION_ITEM(
  '') );
#182 = CARTESIAN_POINT('',(14.632499630506,72.7599390069));
#183 = CARTESIAN_POINT('',(14.632499630506,70.933299957634));
#184 = CARTESIAN_POINT('',(13.050583810297,71.846619482267));
#185 = CARTESIAN_POINT('',(11.468667990088,72.7599390069));
#186 = CARTESIAN_POINT('',(13.050583810297,73.673258531533));
#187 = CARTESIAN_POINT('',(14.632499630506,74.586578056166));
#188 = CARTESIAN_POINT('',(14.632499630506,72.7599390069));
#189 = ( GEOMETRIC_REPRESENTATION_CONTEXT(2) 
PARAMETRIC_REPRESENTATION_CONTEXT() REPRESENTATION_CONTEXT('2D SPACE',''
  ) );
#190 = ORIENTED_EDGE('',*,*,#21,.T.);
#191 = ORIENTED_EDGE('',*,*,#192,.F.);
#192 = EDGE_CURVE('',#112,#24,#193,.T.);
#193 = SURFACE_CURVE('',#194,(#199,#206),.PCURVE_S1.);
#194 = CIRCLE('',#195,1.054610546806);
#195 = AXIS2_PLACEMENT_3D('',#196,#197,#198);
#196 = CARTESIAN_POINT('',(266.5886880837,175.8615090069,-1.3));
#197 = DIRECTION('',(0.,0.,-1.));
#198 = DIRECTION('',(1.,0.,0.));
#199 = PCURVE('',#66,#200);
#200 = DEFINITIONAL_REPRESENTATION('',(#201),#205);
#201 = LINE('',#202,#203);
#202 = CARTESIAN_POINT('',(3.14159265359,0.1));
#203 = VECTOR('',#204,1.);
#204 = DIRECTION('',(1.,0.));
#205 = ( GEOMETRIC_REPRESENTATION_CONTEXT(2) 
PARAMETRIC_REPRESENTATION_CONTEXT() REPRESENTATION_CONTEXT('2D SPACE',''
  ) );
#206 = PCURVE('',#207,#212);
#207 = CONICAL_SURFACE('',#208,0.844804740012,0.19739555985);
#208 = AXIS2_PLACEMENT_3D('',#209,#210,#211);
#209 = CARTESIAN_POINT('',(266.5886880837,175.8615090069,-2.349029033971
    ));
#210 = DIRECTION('',(0.,0.,1.));
#211 = DIRECTION('',(0.,-1.,0.));
#212 = DEFINITIONAL_REPRESENTATION('',(#213),#217);
#213 = LINE('',#214,#215);
#214 = CARTESIAN_POINT('',(1.570796326795,1.049029033971));
#215 = VECTOR('',#216,1.);
#216 = DIRECTION('',(-1.,0.));
#217 = ( GEOMETRIC_REPRESENTATION_CONTEXT(2) 
PARAMETRIC_REPRESENTATION_CONTEXT() REPRESENTATION_CONTEXT('2D SPACE',''
  ) );
#218 = ADVANCED_FACE('',(#219),#95,.T.);
#219 = FACE_BOUND('',#220,.T.);
#220 = EDGE_LOOP('',(#221,#222));
#221 = ORIENTED_EDGE('',*,*,#78,.F.);
#222 = ORIENTED_EDGE('',*,*,#165,.F.);
#223 = ADVANCED_FACE('',(#224),#149,.T.);
#224 = FACE_BOUND('',#225,.T.);
#225 = EDGE_LOOP('',(#226,#249,#250,#273));
#226 = ORIENTED_EDGE('',*,*,#227,.T.);
#227 = EDGE_CURVE('',#228,#24,#230,.T.);
#228 = VERTEX_POINT('',#229);
#229 = CARTESIAN_POINT('',(265.9536891504,175.8615089932,-3.398058067569
    ));
#230 = SURFACE_CURVE('',#231,(#235,#242),.PCURVE_S1.);
#231 = LINE('',#232,#233);
#232 = CARTESIAN_POINT('',(265.9536891505,175.8615089918,-3.398058068319
    ));
#233 = VECTOR('',#234,1.);
#234 = DIRECTION('',(-0.196116135138,1.742623280213E-09,0.980580675691)
  );
#235 = PCURVE('',#149,#236);
#236 = DEFINITIONAL_REPRESENTATION('',(#237),#241);
#237 = LINE('',#238,#239);
#238 = CARTESIAN_POINT('',(4.712389004164,-1.049029034337));
#239 = VECTOR('',#240,1.);
#240 = DIRECTION('',(-6.194748558234E-09,1.));
#241 = ( GEOMETRIC_REPRESENTATION_CONTEXT(2) 
PARAMETRIC_REPRESENTATION_CONTEXT() REPRESENTATION_CONTEXT('2D SPACE',''
  ) );
#242 = PCURVE('',#207,#243);
#243 = DEFINITIONAL_REPRESENTATION('',(#244),#248);
#244 = LINE('',#245,#246);
#245 = CARTESIAN_POINT('',(-1.570796303015,-1.049029034337));
#246 = VECTOR('',#247,1.);
#247 = DIRECTION('',(-6.194748558234E-09,1.));
#248 = ( GEOMETRIC_REPRESENTATION_CONTEXT(2) 
PARAMETRIC_REPRESENTATION_CONTEXT() REPRESENTATION_CONTEXT('2D SPACE',''
  ) );
#249 = ORIENTED_EDGE('',*,*,#134,.T.);
#250 = ORIENTED_EDGE('',*,*,#251,.F.);
#251 = EDGE_CURVE('',#252,#112,#254,.T.);
#252 = VERTEX_POINT('',#253);
#253 = CARTESIAN_POINT('',(267.223687017,175.8615090205,-3.398058067569)
  );
#254 = SURFACE_CURVE('',#255,(#259,#266),.PCURVE_S1.);
#255 = LINE('',#256,#257);
#256 = CARTESIAN_POINT('',(267.2236870168,175.8615090219,-3.398058068319
    ));
#257 = VECTOR('',#258,1.);
#258 = DIRECTION('',(0.196116135138,-1.742596712999E-09,0.980580675691)
  );
#259 = PCURVE('',#149,#260);
#260 = DEFINITIONAL_REPRESENTATION('',(#261),#265);
#261 = LINE('',#262,#263);
#262 = CARTESIAN_POINT('',(1.570796350417,-1.049029034356));
#263 = VECTOR('',#264,1.);
#264 = DIRECTION('',(-6.164853164588E-09,1.));
#265 = ( GEOMETRIC_REPRESENTATION_CONTEXT(2) 
PARAMETRIC_REPRESENTATION_CONTEXT() REPRESENTATION_CONTEXT('2D SPACE',''
  ) );
#266 = PCURVE('',#207,#267);
#267 = DEFINITIONAL_REPRESENTATION('',(#268),#272);
#268 = LINE('',#269,#270);
#269 = CARTESIAN_POINT('',(1.570796350417,-1.049029034356));
#270 = VECTOR('',#271,1.);
#271 = DIRECTION('',(-6.164853164588E-09,1.));
#272 = ( GEOMETRIC_REPRESENTATION_CONTEXT(2) 
PARAMETRIC_REPRESENTATION_CONTEXT() REPRESENTATION_CONTEXT('2D SPACE',''
  ) );
#273 = ORIENTED_EDGE('',*,*,#274,.F.);
#274 = EDGE_CURVE('',#228,#252,#275,.T.);
#275 = SURFACE_CURVE('',#276,(#281,#288),.PCURVE_S1.);
#276 = CIRCLE('',#277,0.634998933292);
#277 = AXIS2_PLACEMENT_3D('',#278,#279,#280);
#278 = CARTESIAN_POINT('',(266.5886880837,175.8615090069,-3.398058067569
    ));
#279 = DIRECTION('',(0.,0.,-1.));
#280 = DIRECTION('',(-1.,-2.148608752673E-08,-0.));
#281 = PCURVE('',#149,#282);
#282 = DEFINITIONAL_REPRESENTATION('',(#283),#287);
#283 = LINE('',#284,#285);
#284 = CARTESIAN_POINT('',(4.712389001871,-1.049029033598));
#285 = VECTOR('',#286,1.);
#286 = DIRECTION('',(-1.,0.));
#287 = ( GEOMETRIC_REPRESENTATION_CONTEXT(2) 
PARAMETRIC_REPRESENTATION_CONTEXT() REPRESENTATION_CONTEXT('2D SPACE',''
  ) );
#288 = PCURVE('',#289,#318);
#289 = ( BOUNDED_SURFACE() B_SPLINE_SURFACE(3,3,(
    (#290,#291,#292,#293)
    ,(#294,#295,#296,#297)
    ,(#298,#299,#300,#301)
    ,(#302,#303,#304,#305)
    ,(#306,#307,#308,#309)
    ,(#310,#311,#312,#313)
    ,(#314,#315,#316,#317
)),.UNSPECIFIED.,.F.,.F.,.F.) B_SPLINE_SURFACE_WITH_KNOTS((4,3,4),(4,4),
  (0.,1.,2.),(0.,1.),.PIECEWISE_BEZIER_KNOTS.) 
GEOMETRIC_REPRESENTATION_ITEM() RATIONAL_B_SPLINE_SURFACE((
    (1.352514191477,1.132178982795,1.132178982795,1.352514191477)
    ,(1.068077780365,0.894079502116,0.894079502116,1.068077780365)
    ,(1.068077780365,0.894079502116,0.894079502116,1.068077780365)
    ,(1.352514191477,1.132178982795,1.132178982795,1.352514191477)
    ,(1.068077780365,0.894079502116,0.894079502116,1.068077780365)
    ,(1.068077780365,0.894079502116,0.894079502116,1.068077780365)
    ,(1.352514191477,1.132178982795,1.132178982795,1.352514191477
))) REPRESENTATION_ITEM('') SURFACE() );
#290 = CARTESIAN_POINT('',(266.7194059465,175.853284935,-3.799811388892)
  );
#291 = CARTESIAN_POINT('',(266.9796123487,175.8369141338,-3.806974675538
    ));
#292 = CARTESIAN_POINT('',(267.1809168615,175.8242491258,-3.64161815686)
  );
#293 = CARTESIAN_POINT('',(267.2249372155,175.8214795995,-3.384555468558
    ));
#294 = CARTESIAN_POINT('',(266.7244670296,175.9337285372,-3.799811388892
    ));
#295 = CARTESIAN_POINT('',(266.9947480015,176.0774884163,-3.806974675538
    ));
#296 = CARTESIAN_POINT('',(267.2038465437,176.1887059428,-3.64161815686)
  );
#297 = CARTESIAN_POINT('',(267.2495712605,176.2130264849,-3.384555468558
    ));
#298 = CARTESIAN_POINT('',(266.6692907111,175.9924853374,-3.799811388892
    ));
#299 = CARTESIAN_POINT('',(266.8297379464,176.2532062444,-3.806974675538
    ));
#300 = CARTESIAN_POINT('',(266.9538653785,176.4549087955,-3.64161815686)
  );
#301 = CARTESIAN_POINT('',(266.9810089999,176.4990161907,-3.384555468558
    ));
#302 = CARTESIAN_POINT('',(266.5886880579,175.9924853216,-3.799811388892
    ));
#303 = CARTESIAN_POINT('',(266.5886880067,176.253206197,-3.806974675538)
  );
#304 = CARTESIAN_POINT('',(266.5886879671,176.4549087238,-3.64161815686)
  );
#305 = CARTESIAN_POINT('',(266.5886879584,176.4990161136,-3.384555468558
    ));
#306 = CARTESIAN_POINT('',(266.5080854048,175.9924853058,-3.799811388892
    ));
#307 = CARTESIAN_POINT('',(266.347638067,176.2532061497,-3.806974675538)
  );
#308 = CARTESIAN_POINT('',(266.2235105557,176.454908652,-3.64161815686)
  );
#309 = CARTESIAN_POINT('',(266.1963669169,176.4990160365,-3.384555468558
    ));
#310 = CARTESIAN_POINT('',(266.4529091094,175.9337284838,-3.799811388892
    ));
#311 = CARTESIAN_POINT('',(266.1826280809,176.0774882567,-3.806974675538
    ));
#312 = CARTESIAN_POINT('',(265.9735294951,176.188705701,-3.64161815686)
  );
#313 = CARTESIAN_POINT('',(265.9278047687,176.2130262252,-3.384555468558
    ));
#314 = CARTESIAN_POINT('',(266.4579702241,175.8532848836,-3.799811388892
    ));
#315 = CARTESIAN_POINT('',(266.1977638283,175.8369139801,-3.806974675538
    ));
#316 = CARTESIAN_POINT('',(265.9964593205,175.824248893,-3.64161815686)
  );
#317 = CARTESIAN_POINT('',(265.9524389676,175.8214793494,-3.384555468558
    ));
#318 = DEFINITIONAL_REPRESENTATION('',(#319),#345);
#319 = B_SPLINE_CURVE_WITH_KNOTS('',3,(#320,#321,#322,#323,#324,#325,
    #326,#327,#328,#329,#330,#331,#332,#333,#334,#335,#336,#337,#338,
    #339,#340,#341,#342,#343,#344),.UNSPECIFIED.,.F.,.F.,(4,1,1,1,1,1,1,
    1,1,1,1,1,1,1,1,1,1,1,1,1,1,1,4),(0.,0.142799666075,0.285599332151,
    0.428398998226,0.571198664302,0.713998330377,0.856797996452,
    0.999597662528,1.142397328603,1.285196994678,1.427996660754,
    1.570796326829,1.713595992905,1.85639565898,1.999195325055,
    2.141994991131,2.284794657206,2.427594323282,2.570393989357,
    2.713193655432,2.855993321508,2.998792987583,3.141592653659),
  .QUASI_UNIFORM_KNOTS.);
#320 = CARTESIAN_POINT('',(1.957467573167,0.979137290619));
#321 = CARTESIAN_POINT('',(1.925672638462,0.979137290621));
#322 = CARTESIAN_POINT('',(1.86382229124,0.979137290624));
#323 = CARTESIAN_POINT('',(1.775158574483,0.979137290628));
#324 = CARTESIAN_POINT('',(1.689443265209,0.979137290631));
#325 = CARTESIAN_POINT('',(1.605711186194,0.979137290633));
#326 = CARTESIAN_POINT('',(1.523062705828,0.979137290636));
#327 = CARTESIAN_POINT('',(1.440651511752,0.979137290638));
#328 = CARTESIAN_POINT('',(1.357626246596,0.97913729064));
#329 = CARTESIAN_POINT('',(1.273160953584,0.979137290641));
#330 = CARTESIAN_POINT('',(1.186181616223,0.979137290642));
#331 = CARTESIAN_POINT('',(1.096206002065,0.979137290644));
#332 = CARTESIAN_POINT('',(0.999999875936,0.979137290644));
#333 = CARTESIAN_POINT('',(0.903793773614,0.979137290645));
#334 = CARTESIAN_POINT('',(0.813818166333,0.979137290646));
#335 = CARTESIAN_POINT('',(0.726838836848,0.979137290647));
#336 = CARTESIAN_POINT('',(0.642373548342,0.979137290647));
#337 = CARTESIAN_POINT('',(0.559348285775,0.979137290647));
#338 = CARTESIAN_POINT('',(0.47693709214,0.979137290646));
#339 = CARTESIAN_POINT('',(0.394288610176,0.979137290644));
#340 = CARTESIAN_POINT('',(0.31055652743,0.979137290641));
#341 = CARTESIAN_POINT('',(0.22484121214,0.979137290638));
#342 = CARTESIAN_POINT('',(0.136177486832,0.979137290634));
#343 = CARTESIAN_POINT('',(7.432713192809E-02,0.97913729063));
#344 = CARTESIAN_POINT('',(4.253219282259E-02,0.979137290629));
#345 = ( GEOMETRIC_REPRESENTATION_CONTEXT(2) 
PARAMETRIC_REPRESENTATION_CONTEXT() REPRESENTATION_CONTEXT('2D SPACE',''
  ) );
#346 = ADVANCED_FACE('',(#347),#207,.T.);
#347 = FACE_BOUND('',#348,.T.);
#348 = EDGE_LOOP('',(#349,#350,#351,#352));
#349 = ORIENTED_EDGE('',*,*,#251,.T.);
#350 = ORIENTED_EDGE('',*,*,#192,.T.);
#351 = ORIENTED_EDGE('',*,*,#227,.F.);
#352 = ORIENTED_EDGE('',*,*,#353,.F.);
#353 = EDGE_CURVE('',#252,#228,#354,.T.);
#354 = SURFACE_CURVE('',#355,(#360,#367),.PCURVE_S1.);
#355 = CIRCLE('',#356,0.634998933292);
#356 = AXIS2_PLACEMENT_3D('',#357,#358,#359);
#357 = CARTESIAN_POINT('',(266.5886880837,175.8615090069,-3.398058067569
    ));
#358 = DIRECTION('',(0.,0.,-1.));
#359 = DIRECTION('',(1.,2.148613228541E-08,0.));
#360 = PCURVE('',#207,#361);
#361 = DEFINITIONAL_REPRESENTATION('',(#362),#366);
#362 = LINE('',#363,#364);
#363 = CARTESIAN_POINT('',(1.570796348281,-1.049029033598));
#364 = VECTOR('',#365,1.);
#365 = DIRECTION('',(-1.,0.));
#366 = ( GEOMETRIC_REPRESENTATION_CONTEXT(2) 
PARAMETRIC_REPRESENTATION_CONTEXT() REPRESENTATION_CONTEXT('2D SPACE',''
  ) );
#367 = PCURVE('',#368,#397);
#368 = ( BOUNDED_SURFACE() B_SPLINE_SURFACE(3,3,(
    (#369,#370,#371,#372)
    ,(#373,#374,#375,#376)
    ,(#377,#378,#379,#380)
    ,(#381,#382,#383,#384)
    ,(#385,#386,#387,#388)
    ,(#389,#390,#391,#392)
    ,(#393,#394,#395,#396
)),.UNSPECIFIED.,.F.,.F.,.F.) B_SPLINE_SURFACE_WITH_KNOTS((4,3,4),(4,4),
  (0.,1.,2.),(0.,1.),.PIECEWISE_BEZIER_KNOTS.) 
GEOMETRIC_REPRESENTATION_ITEM() RATIONAL_B_SPLINE_SURFACE((
    (1.352514191477,1.132178982795,1.132178982795,1.352514191477)
    ,(1.068077780365,0.894079502116,0.894079502116,1.068077780365)
    ,(1.068077780365,0.894079502116,0.894079502116,1.068077780365)
    ,(1.352514191477,1.132178982795,1.132178982795,1.352514191477)
    ,(1.068077780365,0.894079502116,0.894079502116,1.068077780365)
    ,(1.068077780365,0.894079502116,0.894079502116,1.068077780365)
    ,(1.352514191477,1.132178982795,1.132178982795,1.352514191477
))) REPRESENTATION_ITEM('') SURFACE() );
#369 = CARTESIAN_POINT('',(266.4579702208,175.8697330787,-3.799811388892
    ));
#370 = CARTESIAN_POINT('',(266.1977638186,175.88610388,-3.806974675538)
  );
#371 = CARTESIAN_POINT('',(265.9964593059,175.898768888,-3.64161815686)
  );
#372 = CARTESIAN_POINT('',(265.9524389519,175.9015384142,-3.384555468558
    ));
#373 = CARTESIAN_POINT('',(266.4529091377,175.7892894765,-3.799811388892
    ));
#374 = CARTESIAN_POINT('',(266.1826281658,175.6455295974,-3.806974675538
    ));
#375 = CARTESIAN_POINT('',(265.9735296237,175.534312071,-3.64161815686)
  );
#376 = CARTESIAN_POINT('',(265.9278049068,175.5099915288,-3.384555468558
    ));
#377 = CARTESIAN_POINT('',(266.5080854562,175.7305326763,-3.799811388892
    ));
#378 = CARTESIAN_POINT('',(266.347638221,175.4698117693,-3.806974675538)
  );
#379 = CARTESIAN_POINT('',(266.2235107889,175.2681092182,-3.64161815686)
  );
#380 = CARTESIAN_POINT('',(266.1963671674,175.224001823,-3.384555468558)
  );
#381 = CARTESIAN_POINT('',(266.5886881094,175.7305326921,-3.799811388892
    ));
#382 = CARTESIAN_POINT('',(266.5886881606,175.4698118167,-3.806974675538
    ));
#383 = CARTESIAN_POINT('',(266.5886882003,175.26810929,-3.64161815686));
#384 = CARTESIAN_POINT('',(266.5886882089,175.2240019001,-3.384555468558
    ));
#385 = CARTESIAN_POINT('',(266.6692907626,175.730532708,-3.799811388892)
  );
#386 = CARTESIAN_POINT('',(266.8297381003,175.4698118641,-3.806974675538
    ));
#387 = CARTESIAN_POINT('',(266.9538656117,175.2681093617,-3.64161815686)
  );
#388 = CARTESIAN_POINT('',(266.9810092505,175.2240019772,-3.384555468558
    ));
#389 = CARTESIAN_POINT('',(266.724467058,175.7892895299,-3.799811388892)
  );
#390 = CARTESIAN_POINT('',(266.9947480864,175.645529757,-3.806974675538)
  );
#391 = CARTESIAN_POINT('',(267.2038466723,175.5343123127,-3.64161815686)
  );
#392 = CARTESIAN_POINT('',(267.2495713987,175.5099917886,-3.384555468558
    ));
#393 = CARTESIAN_POINT('',(266.7194059433,175.8697331301,-3.799811388892
    ));
#394 = CARTESIAN_POINT('',(266.9796123391,175.8861040336,-3.806974675538
    ));
#395 = CARTESIAN_POINT('',(267.1809168468,175.8987691207,-3.64161815686)
  );
#396 = CARTESIAN_POINT('',(267.2249371997,175.9015386643,-3.384555468558
    ));
#397 = DEFINITIONAL_REPRESENTATION('',(#398),#424);
#398 = B_SPLINE_CURVE_WITH_KNOTS('',3,(#399,#400,#401,#402,#403,#404,
    #405,#406,#407,#408,#409,#410,#411,#412,#413,#414,#415,#416,#417,
    #418,#419,#420,#421,#422,#423),.UNSPECIFIED.,.F.,.F.,(4,1,1,1,1,1,1,
    1,1,1,1,1,1,1,1,1,1,1,1,1,1,1,4),(0.,0.142799666068,0.285599332136,
    0.428398998205,0.571198664273,0.713998330341,0.856797996409,
    0.999597662478,1.142397328546,1.285196994614,1.427996660682,
    1.570796326751,1.713595992819,1.856395658887,1.999195324955,
    2.141994991023,2.284794657092,2.42759432316,2.570393989228,
    2.713193655296,2.855993321365,2.998792987433,3.141592653501),
  .QUASI_UNIFORM_KNOTS.);
#399 = CARTESIAN_POINT('',(1.957467573262,0.979137290645));
#400 = CARTESIAN_POINT('',(1.925672638555,0.979137290644));
#401 = CARTESIAN_POINT('',(1.863822291329,0.979137290641));
#402 = CARTESIAN_POINT('',(1.775158574567,0.979137290637));
#403 = CARTESIAN_POINT('',(1.689443265289,0.979137290634));
#404 = CARTESIAN_POINT('',(1.605711186274,0.979137290632));
#405 = CARTESIAN_POINT('',(1.52306270591,0.97913729063));
#406 = CARTESIAN_POINT('',(1.440651511839,0.979137290628));
#407 = CARTESIAN_POINT('',(1.35762624669,0.979137290626));
#408 = CARTESIAN_POINT('',(1.273160953689,0.979137290624));
#409 = CARTESIAN_POINT('',(1.186181616342,0.979137290622));
#410 = CARTESIAN_POINT('',(1.096206002196,0.979137290619));
#411 = CARTESIAN_POINT('',(0.999999876105,0.979137290616));
#412 = CARTESIAN_POINT('',(0.903793773748,0.979137290613));
#413 = CARTESIAN_POINT('',(0.813818166454,0.979137290611));
#414 = CARTESIAN_POINT('',(0.726838836949,0.979137290609));
#415 = CARTESIAN_POINT('',(0.642373548427,0.979137290608));
#416 = CARTESIAN_POINT('',(0.559348285842,0.979137290608));
#417 = CARTESIAN_POINT('',(0.476937092191,0.979137290609));
#418 = CARTESIAN_POINT('',(0.394288610211,0.979137290611));
#419 = CARTESIAN_POINT('',(0.310556527452,0.979137290613));
#420 = CARTESIAN_POINT('',(0.224841212151,0.979137290617));
#421 = CARTESIAN_POINT('',(0.136177486837,0.979137290621));
#422 = CARTESIAN_POINT('',(7.432713193232E-02,0.979137290624));
#423 = CARTESIAN_POINT('',(4.253219282802E-02,0.979137290626));
#424 = ( GEOMETRIC_REPRESENTATION_CONTEXT(2) 
PARAMETRIC_REPRESENTATION_CONTEXT() REPRESENTATION_CONTEXT('2D SPACE',''
  ) );
#425 = ADVANCED_FACE('',(#426),#289,.T.);
#426 = FACE_BOUND('',#427,.T.);
#427 = EDGE_LOOP('',(#428,#450,#451,#473));
#428 = ORIENTED_EDGE('',*,*,#429,.T.);
#429 = EDGE_CURVE('',#430,#228,#432,.T.);
#430 = VERTEX_POINT('',#431);
#431 = CARTESIAN_POINT('',(266.4439794882,175.8615090069,-3.8));
#432 = SURFACE_CURVE('',#433,(#438,#444),.PCURVE_S1.);
#433 = CIRCLE('',#434,0.5);
#434 = AXIS2_PLACEMENT_3D('',#435,#436,#437);
#435 = CARTESIAN_POINT('',(266.4439794882,175.8615090069,-3.3));
#436 = DIRECTION('',(-1.050777798106E-10,1.,0.));
#437 = DIRECTION('',(0.,0.,-1.));
#438 = PCURVE('',#289,#439);
#439 = DEFINITIONAL_REPRESENTATION('',(#440),#443);
#440 = B_SPLINE_CURVE_WITH_KNOTS('',1,(#441,#442),.UNSPECIFIED.,.F.,.F.,
  (2,2),(0.,1.373400766927),.PIECEWISE_BEZIER_KNOTS.);
#441 = CARTESIAN_POINT('',(1.957467558578,2.086270909466E-02));
#442 = CARTESIAN_POINT('',(1.957467558862,0.979137290621));
#443 = ( GEOMETRIC_REPRESENTATION_CONTEXT(2) 
PARAMETRIC_REPRESENTATION_CONTEXT() REPRESENTATION_CONTEXT('2D SPACE',''
  ) );
#444 = PCURVE('',#368,#445);
#445 = DEFINITIONAL_REPRESENTATION('',(#446),#449);
#446 = B_SPLINE_CURVE_WITH_KNOTS('',1,(#447,#448),.UNSPECIFIED.,.F.,.F.,
  (2,2),(0.,1.373400766927),.PIECEWISE_BEZIER_KNOTS.);
#447 = CARTESIAN_POINT('',(4.253217820917E-02,2.086270899302E-02));
#448 = CARTESIAN_POINT('',(4.253217846429E-02,0.979137290628));
#449 = ( GEOMETRIC_REPRESENTATION_CONTEXT(2) 
PARAMETRIC_REPRESENTATION_CONTEXT() REPRESENTATION_CONTEXT('2D SPACE',''
  ) );
#450 = ORIENTED_EDGE('',*,*,#274,.T.);
#451 = ORIENTED_EDGE('',*,*,#452,.F.);
#452 = EDGE_CURVE('',#453,#252,#455,.T.);
#453 = VERTEX_POINT('',#454);
#454 = CARTESIAN_POINT('',(266.7333966791,175.8615090069,-3.8));
#455 = SURFACE_CURVE('',#456,(#461,#467),.PCURVE_S1.);
#456 = CIRCLE('',#457,0.5);
#457 = AXIS2_PLACEMENT_3D('',#458,#459,#460);
#458 = CARTESIAN_POINT('',(266.7333966791,175.8615090069,-3.3));
#459 = DIRECTION('',(1.048809927795E-10,-1.,0.));
#460 = DIRECTION('',(-1.136868377216E-13,-1.19235884062E-23,-1.));
#461 = PCURVE('',#289,#462);
#462 = DEFINITIONAL_REPRESENTATION('',(#463),#466);
#463 = B_SPLINE_CURVE_WITH_KNOTS('',1,(#464,#465),.UNSPECIFIED.,.F.,.F.,
  (2,2),(0.,1.373400766967),.PIECEWISE_BEZIER_KNOTS.);
#464 = CARTESIAN_POINT('',(4.253217864927E-02,2.086270899267E-02));
#465 = CARTESIAN_POINT('',(4.253217856397E-02,0.979137290631));
#466 = ( GEOMETRIC_REPRESENTATION_CONTEXT(2) 
PARAMETRIC_REPRESENTATION_CONTEXT() REPRESENTATION_CONTEXT('2D SPACE',''
  ) );
#467 = PCURVE('',#368,#468);
#468 = DEFINITIONAL_REPRESENTATION('',(#469),#472);
#469 = B_SPLINE_CURVE_WITH_KNOTS('',1,(#470,#471),.UNSPECIFIED.,.F.,.F.,
  (2,2),(0.,1.373400766967),.PIECEWISE_BEZIER_KNOTS.);
#470 = CARTESIAN_POINT('',(1.957467559038,2.086270894417E-02));
#471 = CARTESIAN_POINT('',(1.957467558958,0.979137290648));
#472 = ( GEOMETRIC_REPRESENTATION_CONTEXT(2) 
PARAMETRIC_REPRESENTATION_CONTEXT() REPRESENTATION_CONTEXT('2D SPACE',''
  ) );
#473 = ORIENTED_EDGE('',*,*,#474,.F.);
#474 = EDGE_CURVE('',#430,#453,#475,.T.);
#475 = SURFACE_CURVE('',#476,(#481,#487),.PCURVE_S1.);
#476 = CIRCLE('',#477,0.144708595447);
#477 = AXIS2_PLACEMENT_3D('',#478,#479,#480);
#478 = CARTESIAN_POINT('',(266.5886880837,175.8615090069,-3.8));
#479 = DIRECTION('',(0.,0.,-1.));
#480 = DIRECTION('',(-1.,-1.050774800095E-10,-0.));
#481 = PCURVE('',#289,#482);
#482 = DEFINITIONAL_REPRESENTATION('',(#483),#486);
#483 = B_SPLINE_CURVE_WITH_KNOTS('',1,(#484,#485),.UNSPECIFIED.,.F.,.F.,
  (2,2),(0.,3.141592653695),.PIECEWISE_BEZIER_KNOTS.);
#484 = CARTESIAN_POINT('',(1.957467558648,2.086270901417E-02));
#485 = CARTESIAN_POINT('',(4.253217864927E-02,2.086270906338E-02));
#486 = ( GEOMETRIC_REPRESENTATION_CONTEXT(2) 
PARAMETRIC_REPRESENTATION_CONTEXT() REPRESENTATION_CONTEXT('2D SPACE',''
  ) );
#487 = PCURVE('',#488,#493);
#488 = PLANE('',#489);
#489 = AXIS2_PLACEMENT_3D('',#490,#491,#492);
#490 = CARTESIAN_POINT('',(0.,0.,-3.8));
#491 = DIRECTION('',(0.,0.,-1.));
#492 = DIRECTION('',(-1.,0.,0.));
#493 = DEFINITIONAL_REPRESENTATION('',(#494),#498);
#494 = CIRCLE('',#495,0.144708595447);
#495 = AXIS2_PLACEMENT_2D('',#496,#497);
#496 = CARTESIAN_POINT('',(-266.5886880837,175.8615090069));
#497 = DIRECTION('',(1.,-1.050774800095E-10));
#498 = ( GEOMETRIC_REPRESENTATION_CONTEXT(2) 
PARAMETRIC_REPRESENTATION_CONTEXT() REPRESENTATION_CONTEXT('2D SPACE',''
  ) );
#499 = ADVANCED_FACE('',(#500),#368,.T.);
#500 = FACE_BOUND('',#501,.T.);
#501 = EDGE_LOOP('',(#502,#503,#504,#505));
#502 = ORIENTED_EDGE('',*,*,#452,.T.);
#503 = ORIENTED_EDGE('',*,*,#353,.T.);
#504 = ORIENTED_EDGE('',*,*,#429,.F.);
#505 = ORIENTED_EDGE('',*,*,#506,.F.);
#506 = EDGE_CURVE('',#453,#430,#507,.T.);
#507 = SURFACE_CURVE('',#508,(#513,#519),.PCURVE_S1.);
#508 = CIRCLE('',#509,0.144708595447);
#509 = AXIS2_PLACEMENT_3D('',#510,#511,#512);
#510 = CARTESIAN_POINT('',(266.5886880837,175.8615090069,-3.8));
#511 = DIRECTION('',(0.,0.,-1.));
#512 = DIRECTION('',(1.,1.050774800095E-10,0.));
#513 = PCURVE('',#368,#514);
#514 = DEFINITIONAL_REPRESENTATION('',(#515),#518);
#515 = B_SPLINE_CURVE_WITH_KNOTS('',1,(#516,#517),.UNSPECIFIED.,.F.,.F.,
  (2,2),(0.,3.141592653695),.PIECEWISE_BEZIER_KNOTS.);
#516 = CARTESIAN_POINT('',(1.957467559108,2.086270901495E-02));
#517 = CARTESIAN_POINT('',(4.25321782093E-02,2.086270891269E-02));
#518 = ( GEOMETRIC_REPRESENTATION_CONTEXT(2) 
PARAMETRIC_REPRESENTATION_CONTEXT() REPRESENTATION_CONTEXT('2D SPACE',''
  ) );
#519 = PCURVE('',#488,#520);
#520 = DEFINITIONAL_REPRESENTATION('',(#521),#525);
#521 = CIRCLE('',#522,0.144708595447);
#522 = AXIS2_PLACEMENT_2D('',#523,#524);
#523 = CARTESIAN_POINT('',(-266.5886880837,175.8615090069));
#524 = DIRECTION('',(-1.,1.050774800095E-10));
#525 = ( GEOMETRIC_REPRESENTATION_CONTEXT(2) 
PARAMETRIC_REPRESENTATION_CONTEXT() REPRESENTATION_CONTEXT('2D SPACE',''
  ) );
#526 = ADVANCED_FACE('',(#527),#488,.T.);
#527 = FACE_BOUND('',#528,.F.);
#528 = EDGE_LOOP('',(#529,#530));
#529 = ORIENTED_EDGE('',*,*,#506,.F.);
#530 = ORIENTED_EDGE('',*,*,#474,.F.);
#531 = ( GEOMETRIC_REPRESENTATION_CONTEXT(3) 
GLOBAL_UNCERTAINTY_ASSIGNED_CONTEXT((#535)) GLOBAL_UNIT_ASSIGNED_CONTEXT
((#532,#533,#534)) REPRESENTATION_CONTEXT('Context #1',
  '3D Context with UNIT and UNCERTAINTY') );
#532 = ( LENGTH_UNIT() NAMED_UNIT(*) SI_UNIT(.MILLI.,.METRE.) );
#533 = ( NAMED_UNIT(*) PLANE_ANGLE_UNIT() SI_UNIT($,.RADIAN.) );
#534 = ( NAMED_UNIT(*) SI_UNIT($,.STERADIAN.) SOLID_ANGLE_UNIT() );
#535 = UNCERTAINTY_MEASURE_WITH_UNIT(LENGTH_MEASURE(2.E-03),#532,
  'distance_accuracy_value','confusion accuracy');
#536 = PRODUCT_RELATED_PRODUCT_CATEGORY('part',$,(#7));
ENDSEC;
END-ISO-10303-21;
